<svg width="590" height="164" viewBox="0 0 590 164" fill="none" xmlns="http://www.w3.org/2000/svg">
<path d="M65.6 111.6C67.6 111.333 68.9 112.167 69.5 114.1C69.5667 114.3 69.6 114.5 69.6 114.7C69.6667 114.833 69.7 114.967 69.7 115.1C69.7 116.633 68.7667 117.5 66.9 117.7L49.4 120.1C47.0667 120.433 45.9 119.4 45.9 117V99C45.1667 100 44.2 100.5 43 100.5C42.6667 100.5 42.2333 100.433 41.7 100.3L37.4 99C35.8667 98.4667 35.1 97.6667 35.1 96.6C35.1 96.2667 35.1667 95.9667 35.3 95.7C35.4333 95.3667 35.6 95.0333 35.8 94.7L56.3 62.6H40.2C38 62.6 36.9 61.6 36.9 59.6C36.9 57.6 38 56.6 40.2 56.6H58.7V56.3V37.1C58.7 34.9 59.8 33.8 62 33.8H68.2C70.4 33.8 71.5 34.9 71.5 37.1V56.3V56.6H89.7C91.9 56.6 93 57.6 93 59.6C93 61.6 91.9 62.6 89.7 62.6H68.1C68.1667 62.8 68.2 63.0333 68.2 63.3C68.2 63.5667 68.1333 63.8667 68 64.2C67.8667 64.5333 67.7 64.8667 67.5 65.2L58.4 79.5C58.6 79.9667 58.7 80.5333 58.7 81.2V86.3L61.1 85.2C61.6333 84.9333 62.2333 84.8 62.9 84.8C63.9 84.8 64.8 85.2333 65.6 86.1L91.7 113.4C92.4333 114.133 92.8 114.867 92.8 115.6C92.8 116.6 92.1667 117.4 90.9 118L87.9 119.4C87.3667 119.667 86.7667 119.8 86.1 119.8C85.1 119.8 84.2 119.367 83.4 118.5L58.7 92.7V112.6L65.6 111.6ZM30.2 117.8C30.2 120 29.1 121.1 26.9 121.1H20.7C18.5 121.1 17.4 120 17.4 117.8V81.9C16.6667 82.9 15.7667 83.4 14.7 83.4C14.5 83.4 14.3 83.4 14.1 83.4C13.9 83.3333 13.7 83.2667 13.5 83.2L8.6 82C7 81.6 6.2 80.7667 6.2 79.5C6.2 79.0333 6.36667 78.4667 6.7 77.8L28 36.6C28.7333 35.2 29.7667 34.5 31.1 34.5C31.3 34.5 31.5 34.5333 31.7 34.6C31.9 34.6 32.1 34.6333 32.3 34.7L37.2 35.9C38.8 36.3 39.6 37.1333 39.6 38.4C39.6 38.8667 39.4333 39.4333 39.1 40.1L29.6 58.5C30 59.1 30.2 59.8333 30.2 60.7V117.8ZM76.5 86.5C75.7 87.3 74.8333 87.7 73.9 87.7C73.3 87.7 72.6333 87.5 71.9 87.1L69.4 85.8C68.2 85.2 67.6 84.4333 67.6 83.5C67.6 82.7 68 81.9667 68.8 81.3L82.4 68.7C83.2 67.9 84.0667 67.5 85 67.5C85.6667 67.5 86.3333 67.7 87 68.1L89.5 69.4C90.7 70 91.3 70.7667 91.3 71.7C91.3 72.4333 90.9 73.1667 90.1 73.9L76.5 86.5ZM117.8 114.9C117.133 116.3 116.167 117 114.9 117C114.7 117 114.5 116.967 114.3 116.9C114.1 116.9 113.867 116.867 113.6 116.8L110.4 115.9C108.867 115.5 108.1 114.667 108.1 113.4C108.1 112.8 108.233 112.233 108.5 111.7L117.6 92.6C117.267 92.6667 116.9 92.7 116.5 92.7H111.3C109.1 92.7 108 91.6 108 89.4V55.8C108 53.6 109.1 52.5 111.3 52.5H116.5C117.833 52.5 118.767 52.9333 119.3 53.8H123.2V45.6H112.4C110.2 45.6 109.1 44.6 109.1 42.6C109.1 40.6 110.2 39.6 112.4 39.6H123.2V37.4C123.2 35.2 124.3 34.1 126.5 34.1H130.7C132.9 34.1 134 35.2 134 37.4V39.6H141.9C144.1 39.6 145.2 40.6 145.2 42.6C145.2 44.6 144.1 45.6 141.9 45.6H134V53.8H145.9C148.1 53.8 149.2 54.9 149.2 57.1V89.4C149.2 91.6 148.1 92.7 145.9 92.7H140.7C140.167 92.7 139.7 92.6333 139.3 92.5L146.2 107.8C146.467 108.333 146.6 108.867 146.6 109.4C146.6 110.733 145.8 111.6 144.2 112L141 112.8C140.467 112.933 140.1 113 139.9 113C138.5 113 137.5 112.233 136.9 110.7L134 104.2V117.7C134 119.9 132.9 121 130.7 121H126.5C124.3 121 123.2 119.9 123.2 117.7V103.6L117.8 114.9ZM191 101.5C191 103.7 189.9 104.8 187.7 104.8H181.5C179.9 104.8 178.867 104.167 178.4 102.9H163.4C162.933 104.167 161.9 104.8 160.3 104.8H154.1C151.9 104.8 150.8 103.7 150.8 101.5V53.8C150.8 51.6 151.9 50.5 154.1 50.5H160.3C160.7 50.5 161.033 50.5333 161.3 50.6L163.5 43H152.5C150.3 43 149.2 42 149.2 40C149.2 38 150.3 37 152.5 37H189.5C191.7 37 192.8 38 192.8 40C192.8 42 191.7 43 189.5 43H176.1V43.1C176.1 43.3 176.033 43.6667 175.9 44.2L173.5 52.4H187.7C189.9 52.4 191 53.5 191 55.7V101.5ZM178.2 58.4H163.6V66.7H178.2V58.4ZM119.8 84.9H123.2V59.8H119.8V84.9ZM137.4 59.8H134V84.9H137.4V59.8ZM163.6 81.2H178.2V72.7H163.6V81.2ZM163.6 96.9H178.2V87.2H163.6V96.9ZM161.1 119.9C160.3 121.167 159.3 121.8 158.1 121.8C157.767 121.8 157.333 121.733 156.8 121.6L152.5 120.3C150.967 119.767 150.2 118.933 150.2 117.8C150.2 117.267 150.4 116.667 150.8 116L155.6 108.4C156.4 107.133 157.4 106.5 158.6 106.5C158.933 106.5 159.367 106.567 159.9 106.7L164.2 108C165.733 108.533 166.5 109.367 166.5 110.5C166.5 110.967 166.3 111.567 165.9 112.3L161.1 119.9ZM191.2 115.9C191.6 116.567 191.8 117.167 191.8 117.7C191.8 118.9 191.033 119.767 189.5 120.3L185.2 121.6C184.667 121.733 184.233 121.8 183.9 121.8C182.7 121.8 181.7 121.167 180.9 119.9L176.2 112.4C175.8 111.667 175.6 111.067 175.6 110.6C175.6 109.4 176.367 108.533 177.9 108L182.2 106.7C182.733 106.567 183.167 106.5 183.5 106.5C184.7 106.5 185.7 107.133 186.5 108.4L191.2 115.9ZM264.5 96.6C264.633 98.8667 263.533 100 261.2 100H255C252.933 100 251.833 98.9 251.7 96.7C251.567 94.6333 251.3 92.6667 250.9 90.8C243.9 93.6667 238.433 96.5 234.5 99.3C230.567 102.033 228.6 104.533 228.6 106.8C228.6 108.8 229.933 110.3 232.6 111.3C235.333 112.233 239.533 112.7 245.2 112.7C255.067 112.7 263.8 110.833 271.4 107.1C272.133 106.7 272.833 106.5 273.5 106.5C274.367 106.5 275.167 106.833 275.9 107.5L276.9 108.3C277.767 108.967 278.2 109.733 278.2 110.6C278.2 111.6 277.6 112.367 276.4 112.9C273.733 114.033 270.633 115.033 267.1 115.9C263.633 116.767 260 117.433 256.2 117.9C252.467 118.433 248.8 118.7 245.2 118.7C239.867 118.7 234.967 118.167 230.5 117.1C226.033 116.033 222.467 114.6 219.8 112.8C217.133 111 215.8 109 215.8 106.8C215.8 104.6 217.133 102.267 219.8 99.8C222.467 97.2667 226.267 94.7 231.2 92.1C236.2 89.5 242.1 86.9333 248.9 84.4C247.7 81.7333 246.167 79.6667 244.3 78.2C242.5 76.6667 240.5 75.9 238.3 75.9C235.9 75.9 233.733 76.6 231.8 78C229.867 79.3333 228.033 81.5 226.3 84.5C225.7 85.5667 224.967 86.2333 224.1 86.5C224.1 86.5 224.067 86.5333 224 86.6C223.867 86.6 223.733 86.6 223.6 86.6C223.533 86.6667 223.467 86.7 223.4 86.7C223.333 86.7 223.367 86.7 223.5 86.7C223.367 86.7 223.2 86.7 223 86.7C222.867 86.7 222.7 86.7 222.5 86.7C222.3 86.7 222.133 86.6667 222 86.6L217.2 85.5C216.933 85.4333 216.733 85.3667 216.6 85.3C215.2 84.8333 214.5 84.0333 214.5 82.9C214.5 82.3 214.633 81.7333 214.9 81.2L224.7 60.8H209.3C207.1 60.8 206 59.8 206 57.8C206 55.8 207.1 54.8 209.3 54.8H227.6L231.2 47.2C231.867 45.7333 232.933 45 234.4 45C234.533 45 234.7 45 234.9 45C235.1 45 235.267 45.0333 235.4 45.1L240.5 46.3C242.1 46.7 242.9 47.5333 242.9 48.8C242.9 49.4 242.767 49.9667 242.5 50.5L240.4 54.8H272.2C274.4 54.8 275.5 55.8 275.5 57.8C275.5 59.8 274.4 60.8 272.2 60.8H237.6L233 70.4C234.733 70.0667 236.5 69.9 238.3 69.9C243.033 69.9 247.2 70.8333 250.8 72.7C254.4 74.5667 257.333 77.2333 259.6 80.7C264.667 79.0333 270 77.4667 275.6 76C275.867 75.9333 276.1 75.9 276.3 75.9C276.5 75.8333 276.7 75.8 276.9 75.8C278.167 75.8 279.167 76.4667 279.9 77.8C280.233 78.4667 280.4 79 280.4 79.4C280.4 80.7333 279.567 81.6 277.9 82C272.433 83.4667 267.3 85 262.5 86.6C263.567 89.6667 264.233 93 264.5 96.6ZM301.293 116.5C299.493 116.167 298.593 115.333 298.593 114C298.593 113.8 298.66 113.433 298.793 112.9L298.893 112.7C299.56 110.833 300.826 110.067 302.693 110.4L305.493 110.9V97.7L301.993 99.9C301.326 100.367 300.593 100.6 299.793 100.6C298.993 100.6 298.193 100.3 297.393 99.7L295.993 98.7C295.06 97.9667 294.593 97.2 294.593 96.4C294.593 95.6 295.16 94.8333 296.293 94.1L305.493 88.4V64.3H297.193C294.993 64.3 293.893 63.3 293.893 61.3C293.893 59.3 294.993 58.3 297.193 58.3H305.493V37.6C305.493 35.4 306.593 34.3 308.793 34.3H314.993C317.193 34.3 318.293 35.4 318.293 37.6V58.3H322.293C324.493 58.3 325.593 59.3 325.593 61.3C325.593 63.3 324.493 64.3 322.293 64.3H318.293V80.4C318.893 80 319.593 79.8 320.393 79.8C321.193 79.8 321.993 80.1 322.793 80.7L324.193 81.7C325.126 82.4333 325.593 83.2 325.593 84C325.593 84.8 325.026 85.5667 323.893 86.3L318.293 89.8V115.9C318.293 116.967 317.96 117.767 317.293 118.3C316.693 118.9 315.826 119.1 314.693 118.9L301.293 116.5ZM334.093 51.3C334.093 53.5 332.993 54.6 330.793 54.6H324.593C322.393 54.6 321.293 53.5 321.293 51.3V39.3C321.293 37.1 322.393 36 324.593 36H330.793C332.126 36 333.06 36.4333 333.593 37.3H334.093H377.693C380.093 37.3 381.126 38.4667 380.793 40.8L378.793 55.2C378.46 57.3333 377.26 58.3333 375.193 58.2L369.193 57.8C366.926 57.6667 365.96 56.4667 366.293 54.2L367.693 43.3H334.093V51.3ZM338.393 77C337.726 78.8667 336.393 79.6667 334.393 79.4L328.993 78.5C327.193 78.1667 326.293 77.3 326.293 75.9C326.293 75.4333 326.393 74.9667 326.593 74.5L335.493 49.6C336.16 47.7333 337.493 46.9333 339.493 47.2L344.893 48.1C346.693 48.4333 347.593 49.3 347.593 50.7C347.593 51.1 347.493 51.5667 347.293 52.1L338.393 77ZM375.893 71.6C378.093 71.6 379.193 72.6 379.193 74.6C379.193 76.6 378.093 77.6 375.893 77.6H355.093C352.893 77.6 351.793 76.5 351.793 74.3V51.6C351.793 49.4 352.893 48.3 355.093 48.3H361.293C363.493 48.3 364.593 49.4 364.593 51.6V71.6H375.893ZM332.593 115.7C331.793 116.7 330.826 117.2 329.693 117.2C329.226 117.2 328.693 117.1 328.093 116.9L324.493 115.5C323.093 114.967 322.393 114.167 322.393 113.1C322.393 112.367 322.693 111.667 323.293 111L337.093 93.9H325.893C323.693 93.9 322.593 92.9 322.593 90.9C322.593 88.9 323.693 87.9 325.893 87.9H344.593V82.2C344.593 80 345.693 78.9 347.893 78.9H354.093C356.293 78.9 357.393 80 357.393 82.2V87.9H376.393C378.593 87.9 379.693 88.9 379.693 90.9C379.693 92.9 378.593 93.9 376.393 93.9H364.593L378.293 111C378.893 111.667 379.193 112.367 379.193 113.1C379.193 114.167 378.493 114.967 377.093 115.5L373.493 116.9C372.893 117.1 372.36 117.2 371.893 117.2C370.76 117.2 369.793 116.7 368.993 115.7L357.393 101.3V117.7C357.393 119.9 356.293 121 354.093 121H347.893C345.693 121 344.593 119.9 344.593 117.7V100.8L332.593 115.7ZM448.393 118.6C447.593 119.867 446.593 120.5 445.393 120.5C445.193 120.5 444.993 120.467 444.793 120.4C444.593 120.4 444.36 120.367 444.093 120.3L439.393 119C437.86 118.6 437.093 117.8 437.093 116.6C437.093 116 437.226 115.433 437.493 114.9C438.893 111.433 439.76 107.133 440.093 102C435.96 103.8 431.36 104.7 426.293 104.7C421.76 104.7 417.76 103.867 414.293 102.2C410.826 100.467 408.126 98.0667 406.193 95C404.326 91.9333 403.393 88.3667 403.393 84.3C403.393 80.6333 404.46 77.4667 406.593 74.8C408.793 72.0667 411.76 69.9667 415.493 68.5C419.226 66.9667 423.493 66.2 428.293 66.2C430.76 66.2 432.96 66.3667 434.893 66.7C436.893 67.0333 438.693 67.5 440.293 68.1V57H396.893C394.693 57 393.593 56 393.593 54C393.593 52 394.693 51 396.893 51H440.293V42.5C440.293 40.3 441.393 39.2 443.593 39.2H449.793C451.993 39.2 453.093 40.3 453.093 42.5V51H466.793C468.993 51 470.093 52 470.093 54C470.093 56 468.993 57 466.793 57H453.093V83.9C453.093 84.9 453.026 85.9 452.893 86.9C452.96 87.9667 452.993 89 452.993 90C453.06 91 453.093 91.9667 453.093 92.9V96.2C453.093 99.6 452.96 102.567 452.693 105.1C452.426 107.633 451.96 109.967 451.293 112.1C450.626 114.167 449.66 116.333 448.393 118.6ZM416.193 84.3C416.193 88.7667 417.093 92.3 418.893 94.9C420.693 97.4333 423.16 98.7 426.293 98.7C430.093 98.7 433.16 97.7333 435.493 95.8C437.893 93.8 439.393 91 439.993 87.4C439.593 81.6667 438.526 77.7 436.793 75.5C435.06 73.3 432.226 72.2 428.293 72.2C420.226 72.2 416.193 76.2333 416.193 84.3Z" fill="#EC7FB1"/>
<path d="M588.768 146.768C589.744 145.791 589.744 144.209 588.768 143.232L572.858 127.322C571.882 126.346 570.299 126.346 569.322 127.322C568.346 128.299 568.346 129.882 569.322 130.858L583.464 145L569.322 159.142C568.346 160.118 568.346 161.701 569.322 162.678C570.299 163.654 571.882 163.654 572.858 162.678L588.768 146.768ZM100 147.5H105.073V142.5H100V147.5ZM115.219 147.5H125.365V142.5H115.219V147.5ZM135.51 147.5H145.656V142.5H135.51V147.5ZM155.802 147.5H165.948V142.5H155.802V147.5ZM176.094 147.5H186.24V142.5H176.094V147.5ZM196.385 147.5H206.531V142.5H196.385V147.5ZM216.677 147.5H226.823V142.5H216.677V147.5ZM236.969 147.5H247.115V142.5H236.969V147.5ZM257.26 147.5H267.406V142.5H257.26V147.5ZM277.552 147.5H287.698V142.5H277.552V147.5ZM297.844 147.5H307.99V142.5H297.844V147.5ZM318.135 147.5H328.281V142.5H318.135V147.5ZM338.427 147.5H348.573V142.5H338.427V147.5ZM358.719 147.5H368.865V142.5H358.719V147.5ZM379.01 147.5H389.156V142.5H379.01V147.5ZM399.302 147.5H409.448V142.5H399.302V147.5ZM419.594 147.5H429.74V142.5H419.594V147.5ZM439.885 147.5H450.031V142.5H439.885V147.5ZM460.177 147.5H470.323V142.5H460.177V147.5ZM480.469 147.5H490.615V142.5H480.469V147.5ZM500.761 147.5H510.906V142.5H500.761V147.5ZM521.052 147.5H531.198V142.5H521.052V147.5ZM541.344 147.5H551.49V142.5H541.344V147.5ZM561.636 147.5H571.781V142.5H561.636V147.5ZM581.927 147.5H587V142.5H581.927V147.5ZM588.768 146.768C589.744 145.791 589.744 144.209 588.768 143.232L572.858 127.322C571.882 126.346 570.299 126.346 569.322 127.322C568.346 128.299 568.346 129.882 569.322 130.858L583.464 145L569.322 159.142C568.346 160.118 568.346 161.701 569.322 162.678C570.299 163.654 571.882 163.654 572.858 162.678L588.768 146.768ZM100 147.5H105.073V142.5H100V147.5ZM115.219 147.5H125.365V142.5H115.219V147.5ZM135.51 147.5H145.656V142.5H135.51V147.5ZM155.802 147.5H165.948V142.5H155.802V147.5ZM176.094 147.5H186.24V142.5H176.094V147.5ZM196.385 147.5H206.531V142.5H196.385V147.5ZM216.677 147.5H226.823V142.5H216.677V147.5ZM236.969 147.5H247.115V142.5H236.969V147.5ZM257.26 147.5H267.406V142.5H257.26V147.5ZM277.552 147.5H287.698V142.5H277.552V147.5ZM297.844 147.5H307.99V142.5H297.844V147.5ZM318.135 147.5H328.281V142.5H318.135V147.5ZM338.427 147.5H348.573V142.5H338.427V147.5ZM358.719 147.5H368.865V142.5H358.719V147.5ZM379.01 147.5H389.156V142.5H379.01V147.5ZM399.302 147.5H409.448V142.5H399.302V147.5ZM419.594 147.5H429.74V142.5H419.594V147.5ZM439.885 147.5H450.031V142.5H439.885V147.5ZM460.177 147.5H470.323V142.5H460.177V147.5ZM480.469 147.5H490.615V142.5H480.469V147.5ZM500.761 147.5H510.906V142.5H500.761V147.5ZM521.052 147.5H531.198V142.5H521.052V147.5ZM541.344 147.5H551.49V142.5H541.344V147.5ZM561.636 147.5H571.781V142.5H561.636V147.5ZM581.927 147.5H587V142.5H581.927V147.5Z" fill="#EC7FB1"/>
</svg>
