<svg width="640" height="129" viewBox="0 0 640 129" fill="none" xmlns="http://www.w3.org/2000/svg">
<path d="M617.393 125.6C616.593 126.867 615.593 127.5 614.393 127.5C614.193 127.5 613.993 127.467 613.793 127.4C613.593 127.4 613.36 127.367 613.093 127.3L608.393 126C606.86 125.6 606.093 124.8 606.093 123.6C606.093 123 606.226 122.433 606.493 121.9C607.893 118.433 608.76 114.133 609.093 109C604.96 110.8 600.36 111.7 595.293 111.7C590.76 111.7 586.76 110.867 583.293 109.2C579.826 107.467 577.126 105.067 575.193 102C573.326 98.9333 572.393 95.3667 572.393 91.3C572.393 87.6333 573.46 84.4667 575.593 81.8C577.793 79.0667 580.76 76.9667 584.493 75.5C588.226 73.9667 592.493 73.2 597.293 73.2C599.76 73.2 601.96 73.3667 603.893 73.7C605.893 74.0333 607.693 74.5 609.293 75.1V64H565.893C563.693 64 562.593 63 562.593 61C562.593 59 563.693 58 565.893 58H609.293V49.5C609.293 47.3 610.393 46.2 612.593 46.2H618.793C620.993 46.2 622.093 47.3 622.093 49.5V58H635.793C637.993 58 639.093 59 639.093 61C639.093 63 637.993 64 635.793 64H622.093V90.9C622.093 91.9 622.026 92.9 621.893 93.9C621.96 94.9667 621.993 96 621.993 97C622.06 98 622.093 98.9667 622.093 99.9V103.2C622.093 106.6 621.96 109.567 621.693 112.1C621.426 114.633 620.96 116.967 620.293 119.1C619.626 121.167 618.66 123.333 617.393 125.6ZM585.193 91.3C585.193 95.7667 586.093 99.3 587.893 101.9C589.693 104.433 592.16 105.7 595.293 105.7C599.093 105.7 602.16 104.733 604.493 102.8C606.893 100.8 608.393 98 608.993 94.4C608.593 88.6667 607.526 84.7 605.793 82.5C604.06 80.3 601.226 79.2 597.293 79.2C589.226 79.2 585.193 83.2333 585.193 91.3Z" fill="#F2FD6B" fill-opacity="0.992157"/>
<path d="M470.293 123.5C468.493 123.167 467.593 122.333 467.593 121C467.593 120.8 467.66 120.433 467.793 119.9L467.893 119.7C468.56 117.833 469.826 117.067 471.693 117.4L474.493 117.9V104.7L470.993 106.9C470.326 107.367 469.593 107.6 468.793 107.6C467.993 107.6 467.193 107.3 466.393 106.7L464.993 105.7C464.06 104.967 463.593 104.2 463.593 103.4C463.593 102.6 464.16 101.833 465.293 101.1L474.493 95.4V71.3H466.193C463.993 71.3 462.893 70.3 462.893 68.3C462.893 66.3 463.993 65.3 466.193 65.3H474.493V44.6C474.493 42.4 475.593 41.3 477.793 41.3H483.993C486.193 41.3 487.293 42.4 487.293 44.6V65.3H491.293C493.493 65.3 494.593 66.3 494.593 68.3C494.593 70.3 493.493 71.3 491.293 71.3H487.293V87.4C487.893 87 488.593 86.8 489.393 86.8C490.193 86.8 490.993 87.1 491.793 87.7L493.193 88.7C494.126 89.4334 494.593 90.2 494.593 91C494.593 91.8 494.026 92.5667 492.893 93.3L487.293 96.8V122.9C487.293 123.967 486.96 124.767 486.293 125.3C485.693 125.9 484.826 126.1 483.693 125.9L470.293 123.5ZM503.093 58.3C503.093 60.5 501.993 61.6 499.793 61.6H493.593C491.393 61.6 490.293 60.5 490.293 58.3V46.3C490.293 44.1 491.393 43 493.593 43H499.793C501.126 43 502.06 43.4334 502.593 44.3H503.093H546.693C549.093 44.3 550.126 45.4667 549.793 47.8L547.793 62.2C547.46 64.3334 546.26 65.3334 544.193 65.2L538.193 64.8C535.926 64.6667 534.96 63.4667 535.293 61.2L536.693 50.3H503.093V58.3ZM507.393 84C506.726 85.8667 505.393 86.6667 503.393 86.4L497.993 85.5C496.193 85.1667 495.293 84.3 495.293 82.9C495.293 82.4334 495.393 81.9667 495.593 81.5L504.493 56.6C505.16 54.7334 506.493 53.9334 508.493 54.2L513.893 55.1C515.693 55.4334 516.593 56.3 516.593 57.7C516.593 58.1 516.493 58.5667 516.293 59.1L507.393 84ZM544.893 78.6C547.093 78.6 548.193 79.6 548.193 81.6C548.193 83.6 547.093 84.6 544.893 84.6H524.093C521.893 84.6 520.793 83.5 520.793 81.3V58.6C520.793 56.4 521.893 55.3 524.093 55.3H530.293C532.493 55.3 533.593 56.4 533.593 58.6V78.6H544.893ZM501.593 122.7C500.793 123.7 499.826 124.2 498.693 124.2C498.226 124.2 497.693 124.1 497.093 123.9L493.493 122.5C492.093 121.967 491.393 121.167 491.393 120.1C491.393 119.367 491.693 118.667 492.293 118L506.093 100.9H494.893C492.693 100.9 491.593 99.9 491.593 97.9C491.593 95.9 492.693 94.9 494.893 94.9H513.593V89.2C513.593 87 514.693 85.9 516.893 85.9H523.093C525.293 85.9 526.393 87 526.393 89.2V94.9H545.393C547.593 94.9 548.693 95.9 548.693 97.9C548.693 99.9 547.593 100.9 545.393 100.9H533.593L547.293 118C547.893 118.667 548.193 119.367 548.193 120.1C548.193 121.167 547.493 121.967 546.093 122.5L542.493 123.9C541.893 124.1 541.36 124.2 540.893 124.2C539.76 124.2 538.793 123.7 537.993 122.7L526.393 108.3V124.7C526.393 126.9 525.293 128 523.093 128H516.893C514.693 128 513.593 126.9 513.593 124.7V107.8L501.593 122.7Z" fill="#F2FD6B" fill-opacity="0.992157"/>
<path d="M433.5 103.6C433.633 105.867 432.533 107 430.2 107H424C421.933 107 420.833 105.9 420.7 103.7C420.567 101.633 420.3 99.6667 419.9 97.8C412.9 100.667 407.433 103.5 403.5 106.3C399.567 109.033 397.6 111.533 397.6 113.8C397.6 115.8 398.933 117.3 401.6 118.3C404.333 119.233 408.533 119.7 414.2 119.7C424.067 119.7 432.8 117.833 440.4 114.1C441.133 113.7 441.833 113.5 442.5 113.5C443.367 113.5 444.167 113.833 444.9 114.5L445.9 115.3C446.767 115.967 447.2 116.733 447.2 117.6C447.2 118.6 446.6 119.367 445.4 119.9C442.733 121.033 439.633 122.033 436.1 122.9C432.633 123.767 429 124.433 425.2 124.9C421.467 125.433 417.8 125.7 414.2 125.7C408.867 125.7 403.967 125.167 399.5 124.1C395.033 123.033 391.467 121.6 388.8 119.8C386.133 118 384.8 116 384.8 113.8C384.8 111.6 386.133 109.267 388.8 106.8C391.467 104.267 395.267 101.7 400.2 99.1C405.2 96.5 411.1 93.9333 417.9 91.4C416.7 88.7333 415.167 86.6667 413.3 85.2C411.5 83.6667 409.5 82.9 407.3 82.9C404.9 82.9 402.733 83.6 400.8 85C398.867 86.3333 397.033 88.5 395.3 91.5C394.7 92.5667 393.967 93.2333 393.1 93.5C393.1 93.5 393.067 93.5333 393 93.6C392.867 93.6 392.733 93.6 392.6 93.6C392.533 93.6667 392.467 93.7 392.4 93.7C392.333 93.7 392.367 93.7 392.5 93.7C392.367 93.7 392.2 93.7 392 93.7C391.867 93.7 391.7 93.7 391.5 93.7C391.3 93.7 391.133 93.6667 391 93.6L386.2 92.5C385.933 92.4333 385.733 92.3667 385.6 92.3C384.2 91.8333 383.5 91.0333 383.5 89.9C383.5 89.3 383.633 88.7333 383.9 88.2L393.7 67.8H378.3C376.1 67.8 375 66.8 375 64.8C375 62.8 376.1 61.8 378.3 61.8H396.6L400.2 54.2C400.867 52.7333 401.933 52 403.4 52C403.533 52 403.7 52 403.9 52C404.1 52 404.267 52.0333 404.4 52.1L409.5 53.3C411.1 53.7 411.9 54.5333 411.9 55.8C411.9 56.4 411.767 56.9667 411.5 57.5L409.4 61.8H441.2C443.4 61.8 444.5 62.8 444.5 64.8C444.5 66.8 443.4 67.8 441.2 67.8H406.6L402 77.4C403.733 77.0667 405.5 76.9 407.3 76.9C412.033 76.9 416.2 77.8333 419.8 79.7C423.4 81.5667 426.333 84.2333 428.6 87.7C433.667 86.0333 439 84.4667 444.6 83C444.867 82.9333 445.1 82.9 445.3 82.9C445.5 82.8333 445.7 82.8 445.9 82.8C447.167 82.8 448.167 83.4667 448.9 84.8C449.233 85.4667 449.4 86 449.4 86.4C449.4 87.7333 448.567 88.6 446.9 89C441.433 90.4667 436.3 92 431.5 93.6C432.567 96.6667 433.233 100 433.5 103.6Z" fill="#F2FD6B" fill-opacity="0.992157"/>
<path d="M286.9 105.6C286.167 106.267 285.367 106.6 284.5 106.6C283.833 106.6 283.133 106.4 282.4 106L280.2 104.8C279 104.067 278.4 103.267 278.4 102.4C278.4 101.6 278.833 100.867 279.7 100.2L299.8 83.4H277.7C275.5 83.4 274.4 82.4 274.4 80.4C274.4 78.4 275.5 77.4 277.7 77.4H307L312.6 72.7V62.3H283C280.8 62.3 279.7 61.3 279.7 59.3C279.7 57.3 280.8 56.3 283 56.3H312.6V43.5C312.6 41.3 313.7 40.2 315.9 40.2H322.1C324.3 40.2 325.4 41.3 325.4 43.5V56.3H332.3L348 43.2C348.733 42.5333 349.533 42.2 350.4 42.2C351.133 42.2 351.833 42.4 352.5 42.8L354.7 44C355.9 44.6667 356.5 45.4667 356.5 46.4C356.5 47.2 356.067 47.9334 355.2 48.6L346 56.3H355.2C357.4 56.3 358.5 57.3 358.5 59.3C358.5 61.3 357.4 62.3 355.2 62.3H338.8L325.4 73.5V77.1V77.4H360.3C362.5 77.4 363.6 78.4 363.6 80.4C363.6 82.4 362.5 83.4 360.3 83.4H313.5L305.6 90H354.7C356.9 90 358 91.1 358 93.3V125.3C358 127.5 356.9 128.6 354.7 128.6H348.5C346.633 128.6 345.567 127.733 345.3 126H304.1C303.7 127.467 302.633 128.2 300.9 128.2H294.7C292.5 128.2 291.4 127.1 291.4 124.9V101.8L286.9 105.6ZM345.2 96H304.2V105.1H345.2V96ZM304.2 120H345.2V111.1H304.2V120Z" fill="#F2FD6B" fill-opacity="0.992157"/>
<path d="M202.8 125.1C202.8 127.3 201.7 128.4 199.5 128.4H193.3C191.1 128.4 190 127.3 190 125.1V84.9L187.7 88.6C186.9 89.8667 185.9 90.5 184.7 90.5C184.367 90.5 183.933 90.4334 183.4 90.3L179.1 89C177.567 88.4667 176.8 87.6334 176.8 86.5C176.8 85.9667 177 85.3667 177.4 84.7L203.1 43.3C203.9 42.0334 204.9 41.4 206.1 41.4C206.433 41.4 206.867 41.4667 207.4 41.6L211.7 42.9C213.233 43.4334 214 44.2667 214 45.4C214 45.8667 213.8 46.4667 213.4 47.2L202.1 65.4C202.567 66 202.8 66.7667 202.8 67.7V125.1ZM218.5 92.6C217.9 94.5334 216.567 95.3334 214.5 95L208.9 94.1C207.1 93.7667 206.2 92.8667 206.2 91.4C206.2 91.0667 206.267 90.6334 206.4 90.1L221.8 44.2C222.4 42.2667 223.733 41.4667 225.8 41.8L231.4 42.7C233.2 43.0334 234.1 43.9334 234.1 45.4C234.1 45.7334 234.033 46.1667 233.9 46.7L229.2 60.6H258C260.2 60.6 261.3 61.6 261.3 63.6C261.3 65.6 260.2 66.6 258 66.6H242.7V66.9V83.4H258C260.2 83.4 261.3 84.4 261.3 86.4C261.3 88.4 260.2 89.4 258 89.4H242.7V106.9H258C260.2 106.9 261.3 107.9 261.3 109.9C261.3 111.9 260.2 112.9 258 112.9H242.7V125.1C242.7 127.3 241.6 128.4 239.4 128.4H233.2C231 128.4 229.9 127.3 229.9 125.1V66.9V66.6H227.2L218.5 92.6Z" fill="#F2FD6B" fill-opacity="0.992157"/>
<path d="M136.8 126.3C134.8 126.1 133.8 125.267 133.8 123.8C133.8 122.6 134.133 121.7 134.8 121.1C135.533 120.433 136.467 120.167 137.6 120.3L147 121.2V43.9C147 41.7 148.1 40.6 150.3 40.6H156.5C158.7 40.6 159.8 41.7 159.8 43.9V124.9C159.8 127.233 158.667 128.3 156.4 128.1L136.8 126.3ZM91.1001 121.3C91.1001 123.5 90.0001 124.6 87.8001 124.6H81.6001C79.4001 124.6 78.3001 123.5 78.3001 121.3V96.1C78.3001 93.9 79.4001 92.8 81.6001 92.8H87.8001C88.9334 92.8 89.8001 93.1333 90.4001 93.8H95.6001V85.7H81.7001C79.5001 85.7 78.4001 84.7 78.4001 82.7C78.4001 80.7 79.5001 79.7 81.7001 79.7H95.6001V66.5H90.6001L89.7001 73.5C89.3668 75.5667 88.1668 76.5667 86.1001 76.5L80.1001 76.1C77.7668 75.9667 76.7668 74.7667 77.1001 72.5L80.9001 44.1C81.2334 42.0333 82.4334 41.0333 84.5001 41.1L90.5001 41.5C92.8334 41.6333 93.8334 42.8333 93.5001 45.1L91.4001 60.5H95.6001V44.5C95.6001 42.3 96.7001 41.2 98.9001 41.2H105.1C107.3 41.2 108.4 42.3 108.4 44.5V60.5H121.8C124 60.5 125.1 61.5 125.1 63.5C125.1 65.5 124 66.5 121.8 66.5H108.4V79.7H121.3C123.5 79.7 124.6 80.7 124.6 82.7C124.6 84.7 123.5 85.7 121.3 85.7H108.4V93.8H122C124.2 93.8 125.3 94.9 125.3 97.1V121.3C125.3 123.633 124.133 124.7 121.8 124.5L112 123.5C109.733 123.3 108.8 122.167 109.2 120.1C109.733 118.1 110.4 117.133 111.2 117.2L112.5 117.4V99.8H108.4V125.2C108.4 127.4 107.3 128.5 105.1 128.5H98.9001C96.7001 128.5 95.6001 127.4 95.6001 125.2V99.8H91.1001V121.3ZM141.7 103.1C141.7 105.3 140.6 106.4 138.4 106.4H132.2C130 106.4 128.9 105.3 128.9 103.1V53.4C128.9 51.2 130 50.1 132.2 50.1H138.4C140.6 50.1 141.7 51.2 141.7 53.4V103.1Z" fill="#F2FD6B" fill-opacity="0.992157"/>
<path fill-rule="evenodd" clip-rule="evenodd" d="M17.1422 36.6776L1.23224 20.7677C0.255922 19.7914 0.255922 18.2085 1.23224 17.2322L17.1422 1.3223C18.1184 0.34599 19.7014 0.34599 20.6777 1.3223C21.654 2.29861 21.654 3.88152 20.6777 4.85783L8.07273 17.4628L8.07272 20.5372L20.6777 33.1421C21.654 34.1184 21.654 35.7013 20.6777 36.6776C19.7014 37.6539 18.1184 37.6539 17.1422 36.6776ZM484.927 16.5L490 16.5L490 21.5L484.927 21.5L484.927 16.5ZM464.635 16.5L474.781 16.5L474.781 21.5L464.635 21.5L464.635 16.5ZM444.344 16.5L454.49 16.5L454.49 21.5L444.344 21.5L444.344 16.5ZM424.052 16.5L434.198 16.5L434.198 21.5L424.052 21.5L424.052 16.5ZM403.76 16.5L413.906 16.5L413.906 21.5L403.76 21.5L403.76 16.5ZM383.469 16.5L393.615 16.5L393.615 21.5L383.469 21.5L383.469 16.5ZM363.177 16.5L373.323 16.5L373.323 21.5L363.177 21.5L363.177 16.5ZM342.885 16.5L353.031 16.5L353.031 21.5L342.885 21.5L342.885 16.5ZM322.594 16.5L332.74 16.5L332.74 21.5L322.594 21.5L322.594 16.5ZM302.302 16.5L312.448 16.5L312.448 21.5L302.302 21.5L302.302 16.5ZM282.01 16.5L292.156 16.5L292.156 21.5L282.01 21.5L282.01 16.5ZM261.719 16.5L271.865 16.5L271.865 21.5L261.719 21.5L261.719 16.5ZM241.427 16.5L251.573 16.5L251.573 21.5L241.427 21.5L241.427 16.5ZM221.135 16.5L231.281 16.5L231.281 21.5L221.135 21.5L221.135 16.5ZM200.844 16.5L210.99 16.5L210.99 21.5L200.844 21.5L200.844 16.5ZM180.552 16.5L190.698 16.5L190.698 21.5L180.552 21.5L180.552 16.5ZM160.26 16.5L170.406 16.5L170.406 21.5L160.26 21.5L160.26 16.5ZM139.969 16.5L150.115 16.5L150.115 21.5L139.969 21.5L139.969 16.5ZM119.677 16.5L129.823 16.5L129.823 21.5L119.677 21.5L119.677 16.5ZM99.3853 16.5L109.531 16.5L109.531 21.5L99.3853 21.5L99.3853 16.5ZM79.0936 16.5L89.2395 16.5L89.2395 21.5L79.0936 21.5L79.0936 16.5ZM58.8019 16.5L68.9478 16.5L68.9478 21.5L58.8019 21.5L58.8019 16.5ZM38.5103 16.5L48.6561 16.5L48.6561 21.5L38.5103 21.5L38.5103 16.5ZM18.2186 16.5L28.3644 16.5L28.3644 21.5L18.2186 21.5L18.2186 16.5Z" fill="#F2FD6B"/>
</svg>
