<svg width="417" height="65" viewBox="0 0 417 65" fill="none" xmlns="http://www.w3.org/2000/svg">
<rect y="0.181396" width="417" height="64" fill="#F2FD6B"/>
<path d="M149.686 48.684C149.638 49.476 149.23 49.848 148.462 49.8L146.23 49.728C145.414 49.68 145.03 49.26 145.078 48.468L146.806 24.168C146.854 23.376 147.262 23.004 148.03 23.052L150.262 23.124C150.718 23.148 151.054 23.316 151.27 23.628H160.558C160.486 23.46 160.45 23.268 160.45 23.052V19.344C160.45 18.552 160.846 18.156 161.638 18.156H163.87C164.662 18.156 165.058 18.552 165.058 19.344V23.052C165.058 23.268 165.022 23.46 164.95 23.628H175.786C176.578 23.628 176.974 23.988 176.974 24.708C176.974 25.428 176.578 25.788 175.786 25.788H151.306L149.686 48.684ZM170.134 44.4C170.134 43.608 170.53 43.212 171.322 43.212H173.554C174.346 43.212 174.742 43.608 174.742 44.4V47.892C174.742 48.684 174.346 49.08 173.554 49.08H159.298C158.506 49.08 158.11 48.684 158.11 47.892V28.668C158.11 27.876 158.506 27.48 159.298 27.48H161.53C162.322 27.48 162.718 27.876 162.718 28.668V46.92H170.134V44.4ZM176.11 40.08C176.158 40.464 176.086 40.776 175.894 41.016C175.702 41.232 175.414 41.352 175.03 41.376L172.798 41.52C172.006 41.568 171.574 41.208 171.502 40.44L170.422 31.368C170.374 30.984 170.446 30.684 170.638 30.468C170.83 30.228 171.118 30.096 171.502 30.072L173.734 29.928C174.526 29.88 174.958 30.24 175.03 31.008L176.11 40.08ZM169.126 42.276C169.126 43.068 168.73 43.464 167.938 43.464H165.706C164.914 43.464 164.518 43.068 164.518 42.276V31.188C164.518 30.396 164.914 30 165.706 30H167.938C168.73 30 169.126 30.396 169.126 31.188V42.276ZM155.662 47.496C155.59 48.264 155.17 48.624 154.402 48.576L152.17 48.468C151.354 48.42 150.982 48 151.054 47.208L152.674 31.296C152.746 30.528 153.166 30.168 153.934 30.216L156.166 30.324C156.982 30.372 157.354 30.792 157.282 31.584L155.662 47.496ZM192.202 24.168C192.202 24.96 191.806 25.356 191.014 25.356H188.782C187.99 25.356 187.594 24.96 187.594 24.168V23.484H182.518C181.726 23.484 181.33 23.124 181.33 22.404C181.33 21.684 181.726 21.324 182.518 21.324H187.594V20.028C187.594 19.236 187.99 18.84 188.782 18.84H191.014C191.806 18.84 192.202 19.236 192.202 20.028V21.324H201.886V19.956C201.886 19.164 202.282 18.768 203.074 18.768H205.306C206.098 18.768 206.494 19.164 206.494 19.956V21.324H211.102C211.894 21.324 212.29 21.684 212.29 22.404C212.29 23.124 211.894 23.484 211.102 23.484H206.494V24.168C206.494 24.96 206.098 25.356 205.306 25.356H203.074C202.282 25.356 201.886 24.96 201.886 24.168V23.484H192.202V24.168ZM183.346 43.68C182.602 43.776 182.134 43.464 181.942 42.744C181.798 42.048 182.134 41.64 182.95 41.52C184.486 41.28 185.938 40.92 187.306 40.44C188.674 39.936 189.838 39.288 190.798 38.496H182.554C181.762 38.496 181.366 38.136 181.366 37.416C181.366 36.696 181.762 36.336 182.554 36.336H192.598C192.814 35.904 192.97 35.448 193.066 34.968V34.932H187.846C187.678 35.028 187.462 35.076 187.198 35.076H184.966C184.174 35.076 183.778 34.68 183.778 33.888V26.94C183.778 26.148 184.174 25.752 184.966 25.752H187.198C187.414 25.752 187.606 25.788 187.774 25.86H208.582C209.374 25.86 209.77 26.256 209.77 27.048V34.032C209.77 34.824 209.374 35.22 208.582 35.22H206.35C205.99 35.22 205.702 35.124 205.486 34.932H197.674C197.578 35.412 197.422 35.88 197.206 36.336H211.138C211.93 36.336 212.326 36.696 212.326 37.416C212.326 38.136 211.93 38.496 211.138 38.496H205.414L210.778 41.124C211.234 41.34 211.462 41.628 211.462 41.988C211.462 42.228 211.33 42.48 211.066 42.744L210.778 42.996C210.466 43.308 210.154 43.464 209.842 43.464C209.674 43.464 209.446 43.404 209.158 43.284L207.106 42.276C207.274 42.444 207.358 42.66 207.358 42.924C207.358 42.996 207.334 43.128 207.286 43.32L205.774 48.684C205.582 49.428 205.114 49.74 204.37 49.62L199.834 48.936C199.162 48.864 198.826 48.564 198.826 48.036C198.826 47.988 198.826 47.94 198.826 47.892C198.85 47.82 198.874 47.748 198.898 47.676V47.64C199.114 46.944 199.582 46.644 200.302 46.74L201.67 46.956L202.462 44.148H194.218L189.106 48.864C188.818 49.152 188.506 49.296 188.17 49.296C187.954 49.296 187.714 49.224 187.45 49.08L186.55 48.612C186.118 48.396 185.902 48.12 185.902 47.784C185.902 47.496 186.046 47.232 186.334 46.992L189.43 44.148H187.162C186.778 44.148 186.478 44.064 186.262 43.896C186.07 43.704 185.974 43.476 185.974 43.212C185.134 43.404 184.258 43.56 183.346 43.68ZM205.162 28.02H188.386V29.496H205.162V28.02ZM188.386 32.772H205.162V31.656H188.386V32.772ZM200.986 39.288C200.53 39.072 200.302 38.808 200.302 38.496H195.622C194.254 39.888 192.37 41.052 189.97 41.988H191.77L193.39 40.476C193.678 40.188 193.99 40.044 194.326 40.044C194.566 40.044 194.806 40.116 195.046 40.26L195.946 40.728C196.378 40.944 196.594 41.22 196.594 41.556C196.594 41.7 196.546 41.844 196.45 41.988H206.278C206.374 41.988 206.47 42 206.566 42.024L200.986 39.288ZM236.626 48.936C236.338 49.392 235.978 49.62 235.546 49.62C235.474 49.62 235.402 49.608 235.33 49.584C235.258 49.584 235.174 49.572 235.078 49.548L233.386 49.08C232.834 48.936 232.558 48.648 232.558 48.216C232.558 48 232.606 47.796 232.702 47.604C233.206 46.356 233.518 44.808 233.638 42.96C232.15 43.608 230.494 43.932 228.67 43.932C227.038 43.932 225.598 43.632 224.35 43.032C223.102 42.408 222.13 41.544 221.434 40.44C220.762 39.336 220.426 38.052 220.426 36.588C220.426 35.268 220.81 34.128 221.578 33.168C222.37 32.184 223.438 31.428 224.782 30.9C226.126 30.348 227.662 30.072 229.39 30.072C230.278 30.072 231.07 30.132 231.766 30.252C232.486 30.372 233.134 30.54 233.71 30.756V26.76H218.086C217.294 26.76 216.898 26.4 216.898 25.68C216.898 24.96 217.294 24.6 218.086 24.6H233.71V21.54C233.71 20.748 234.106 20.352 234.898 20.352H237.13C237.922 20.352 238.318 20.748 238.318 21.54V24.6H243.25C244.042 24.6 244.438 24.96 244.438 25.68C244.438 26.4 244.042 26.76 243.25 26.76H238.318V36.444C238.318 36.804 238.294 37.164 238.246 37.524C238.27 37.908 238.282 38.28 238.282 38.64C238.306 39 238.318 39.348 238.318 39.684V40.872C238.318 42.096 238.27 43.164 238.174 44.076C238.078 44.988 237.91 45.828 237.67 46.596C237.43 47.34 237.082 48.12 236.626 48.936ZM225.034 36.588C225.034 38.196 225.358 39.468 226.006 40.404C226.654 41.316 227.542 41.772 228.67 41.772C230.038 41.772 231.142 41.424 231.982 40.728C232.846 40.008 233.386 39 233.602 37.704C233.458 35.64 233.074 34.212 232.45 33.42C231.826 32.628 230.806 32.232 229.39 32.232C226.486 32.232 225.034 33.684 225.034 36.588ZM272.969 41.304C272.969 42.816 272.405 44.148 271.277 45.3C270.149 46.428 268.589 47.304 266.597 47.928C264.605 48.552 262.313 48.864 259.721 48.864C257.753 48.864 256.013 48.696 254.501 48.36C253.013 48.048 251.849 47.592 251.009 46.992C250.169 46.392 249.749 45.684 249.749 44.868C249.749 44.028 250.157 43.26 250.973 42.564C251.813 41.844 252.893 41.268 254.213 40.836C255.533 40.404 256.925 40.188 258.389 40.188C260.525 40.188 262.325 40.608 263.789 41.448C265.253 42.288 266.237 43.476 266.741 45.012C267.821 44.1 268.361 42.864 268.361 41.304C268.361 40.08 268.073 39 267.497 38.064C266.945 37.128 266.165 36.396 265.157 35.868C264.173 35.34 263.033 35.076 261.737 35.076C260.273 35.076 258.785 35.34 257.273 35.868C255.761 36.372 254.321 37.092 252.953 38.028L250.649 39.828C250.217 40.188 249.809 40.368 249.425 40.368C248.993 40.368 248.597 40.152 248.237 39.72L247.949 39.432C247.709 39.192 247.589 38.928 247.589 38.64C247.589 38.328 247.745 38.052 248.057 37.812C248.657 37.308 249.329 36.84 250.073 36.408L263.645 25.68H250.469C249.677 25.68 249.281 25.332 249.281 24.636C249.281 23.94 249.677 23.592 250.469 23.592H268.973C269.645 23.592 269.981 23.796 269.981 24.204C269.981 24.492 269.813 24.768 269.477 25.032L259.109 33.168C260.021 33.048 260.897 32.988 261.737 32.988C263.273 32.988 264.713 33.204 266.057 33.636C267.425 34.068 268.625 34.668 269.657 35.436C270.689 36.18 271.493 37.056 272.069 38.064C272.669 39.072 272.969 40.152 272.969 41.304ZM254.357 44.868C254.357 45.372 254.501 45.768 254.789 46.056C255.101 46.32 255.641 46.512 256.409 46.632C257.177 46.728 258.281 46.776 259.721 46.776C260.729 46.776 261.653 46.716 262.493 46.596C262.445 46.476 262.409 46.32 262.385 46.128C262.097 43.56 260.765 42.276 258.389 42.276C257.141 42.276 256.157 42.504 255.437 42.96C254.717 43.416 254.357 44.052 254.357 44.868Z" fill="#EC7FB1"/>
<path d="M351.528 6.42742L354.338 11.4983L360.139 11.4846L356.074 14.6322L358.884 19.7031L353.562 16.5776L349.497 19.7253L350.273 14.646L344.952 11.5205L350.753 11.5068L351.528 6.42742Z" fill="#EC7FB1"/>
<path d="M369.791 34.9877L367.213 39.2932L371.462 43.6223L365.619 41.9541L363.041 46.2596L362.008 40.9232L356.165 39.255L361.37 37.6251L360.337 32.2886L364.586 36.6177L369.791 34.9877Z" fill="#EC7FB1"/>
<path d="M345.723 37.6782L346.533 41.2346L350.443 42.2403L347.033 43.4326L347.842 46.989L344.925 44.1694L341.515 45.3617L343.123 42.4268L340.206 39.6073L344.116 40.613L345.723 37.6782Z" fill="#EC7FB1"/>
<path d="M374.199 13.0216L376.072 16.4024L379.939 16.3933L377.229 18.4919L379.102 21.8727L375.555 19.7889L372.845 21.8875L373.362 18.501L369.814 16.4172L373.682 16.4081L374.199 13.0216Z" fill="#EC7FB1"/>
<path d="M337.685 19.3402L339.558 22.721L343.426 22.7119L340.716 24.8105L342.589 28.1913L339.041 26.1075L336.331 28.2061L336.848 24.8196L333.301 22.7358L337.168 22.7267L337.685 19.3402Z" fill="#EC7FB1"/>
<path d="M371.95 51.1161L373.823 54.4969L377.69 54.4878L374.98 56.5864L376.853 59.9672L373.306 57.8834L370.596 59.982L371.113 56.5955L367.565 54.5117L371.433 54.5026L371.95 51.1161Z" fill="#EC7FB1"/>
<path d="M385.765 31.0592L385.205 34.4333L388.734 36.5486L384.859 36.5186L384.299 39.8928L382.464 36.5001L378.589 36.4701L381.33 34.4033L379.495 31.0107L383.024 33.126L385.765 31.0592Z" fill="#EC7FB1"/>
<path d="M60.9379 24.8471L57.3192 30.3502L50.9012 28.6519L55.0826 33.7513L51.4639 39.2545L57.6669 36.903L61.8483 42.0024L61.5006 35.4496L67.7036 33.0981L61.2857 31.3998L60.9379 24.8471Z" fill="#EC7FB1"/>
<path d="M77.3701 41.2734L75.7985 46.0502H70.7127L74.8272 49.0024L73.2556 53.7791L77.3701 50.8269L81.4846 53.7791L79.913 49.0024L84.0275 46.0502H78.9417L77.3701 41.2734Z" fill="#EC7FB1"/>
<path d="M40.0446 24.2398L37.632 27.9085L33.3534 26.7763L36.141 30.1759L33.7285 33.8447L37.8639 32.277L40.6515 35.6766L40.4197 31.3081L44.555 29.7405L40.2764 28.6083L40.0446 24.2398Z" fill="#EC7FB1"/>
<path d="M45.3701 48.1865L44.4721 50.9161H41.5659L43.917 52.6031L43.019 55.3326L45.3701 53.6457L47.7213 55.3326L46.8232 52.6031L49.1743 50.9161H46.2682L45.3701 48.1865Z" fill="#EC7FB1"/>
<path d="M79.1205 16.192L76.6908 18.3525L73.8594 16.7381L75.1892 19.6878L72.7595 21.8483L76.011 21.5108L77.3408 24.4604L78.0206 21.3022L81.2721 20.9647L78.4407 19.3503L79.1205 16.192Z" fill="#EC7FB1"/>
<path d="M51.6074 7.75353L51.0252 11.2947L47.435 11.8422L50.6654 13.4833L50.0832 17.0245L52.6619 14.4975L55.8922 16.1386L54.2556 12.9358L56.8342 10.4089L53.244 10.9564L51.6074 7.75353Z" fill="#EC7FB1"/>
</svg>
