<svg width="115" height="115" viewBox="0 0 115 115" fill="none" xmlns="http://www.w3.org/2000/svg">
<circle cx="57.4111" cy="57.4111" r="57.4111" fill="#EC7FB1"/>
<path d="M53.0656 23.6572C54.5624 19.0507 61.0794 19.0507 62.5762 23.6572L67.6545 39.2866C68.3238 41.3467 70.2436 42.7415 72.4098 42.7415L88.8435 42.7415C93.6871 42.7415 95.701 48.9396 91.7824 51.7866L78.4872 61.4461C76.7348 62.7193 76.0015 64.9762 76.6709 67.0363L81.7492 82.6657C83.2459 87.2722 77.9735 91.1029 74.055 88.2559L60.7598 78.5964C59.0074 77.3231 56.6344 77.3231 54.882 78.5964L41.5868 88.2558C37.6682 91.1029 32.3958 87.2722 33.8926 82.6657L38.9709 67.0363C39.6403 64.9762 38.907 62.7193 37.1545 61.4461L23.8594 51.7866C19.9408 48.9396 21.9547 42.7415 26.7983 42.7415L43.232 42.7415C45.3982 42.7415 47.3179 41.3467 47.9873 39.2866L53.0656 23.6572Z" fill="#F2FD6B"/>
</svg>
